<svg xmlns="http://www.w3.org/2000/svg" viewBox="0 0 1024 1024" width="1024" height="1024">
	<defs>
		<clipPath clipPathUnits="userSpaceOnUse" id="cp1">
			<path d="M0 0L1024 0L1024 1024L0 1024Z" />
		</clipPath>
		<clipPath clipPathUnits="userSpaceOnUse" id="cp2">
			<path d="M0 0L1024 0L1024 1024L0 1024L0 0Z" />
		</clipPath>
	</defs>
	<style>
		tspan { white-space:pre }
		.shp0 { fill: #ffffff } 
	</style>
	<g id="Page 1" clip-path="url(#cp1)">
		<g id="Mask" clip-path="url(#cp2)">
			<path id="Path 2" fill-rule="evenodd" class="shp0" d="M896 512C896 724.2 724 896 512 896C300 896 128 724.2 128 512C128 300 300 128 512 128C724 128 896 300 896 512ZM586.4 431.4C595.8 451.4 604.4 472.2 612.8 493.4C679.2 487.2 762 487.2 831.2 490.8C826.4 420.2 799 355.8 755.8 305C722 354.6 663 398.2 586.4 431.4ZM433.2 202.2C478.8 248.8 521.6 308 558.8 376.8C626.8 347.8 681.4 309.6 716.2 265.6C660.8 219.6 589.6 192 512 192C484.8 192 458.6 195.8 433.2 202.2ZM202 433.2C218.2 434.2 234.6 434.8 251.4 434.8C339.8 434.8 422.6 422.2 494.8 400.2C456.8 331.6 413.4 273 367.2 227C286 268.2 225 343 202 433.2ZM192 512C192 593 222.4 666.8 272 723.2C319 633 405.8 558.4 516 512.2C523.8 509 533.6 506.2 544.6 503.6C537.8 487 530.6 470.8 523 455C442.4 480.8 348.6 496.6 247.8 497.8C229.2 498 210.8 497.6 192.6 496.8C192.2 501.8 192 506.8 192 512ZM625.2 811C619.2 760.2 609.4 707.8 595.6 654.8C586.6 620.8 576.4 588 565 556.4C551.2 559.4 539.2 562.8 530.2 567C434.4 610.4 358.4 680.2 315.8 764.6C370 806.8 438 832 512 832C552 832 590 824.4 625.2 811ZM830 547.4C770.2 543 695 542.2 632.2 547.4C640.6 572 648.4 597.2 655.2 623.2C669.2 676.8 679 729.6 685 781C764 730 819.2 645.6 830 547.4Z" />
		</g>
	</g>
</svg>