<svg xmlns="http://www.w3.org/2000/svg" viewBox="0 0 1024 1024" width="1024" height="1024">
	<defs>
		<clipPath clipPathUnits="userSpaceOnUse" id="cp1">
			<path d="M0 0L1024 0L1024 1024L0 1024Z" />
		</clipPath>
		<clipPath clipPathUnits="userSpaceOnUse" id="cp2">
			<path d="M0 0L1024 0L1024 1024L0 1024L0 0Z" />
		</clipPath>
	</defs>
	<style>
		tspan { white-space:pre }
		.shp0 { fill: #ffffff } 
	</style>
	<g id="Page 1" clip-path="url(#cp1)">
		<g id="Mask" clip-path="url(#cp2)">
			<path id="Path 2" class="shp0" d="M356.71 574.96C338.46 574.96 322.85 583.37 310.31 600.62C297.72 617.58 291.51 638.57 291.51 663.48C291.51 688.43 297.84 709.5 310.31 726.5C322.85 743.58 338.38 752.04 356.71 752.04C373.7 752.04 388.49 743.5 400.95 726.5C413.49 709.5 419.75 688.43 419.75 663.48C419.75 638.65 413.41 617.62 400.95 600.62C388.48 583.45 373.82 574.96 356.71 574.96ZM669.34 574.96C651.25 574.96 635.55 583.37 622.97 600.62C610.43 617.58 604.25 638.57 604.25 663.48C604.25 688.43 610.63 709.5 622.97 726.5C635.55 743.58 651.17 752.04 669.34 752.04C686.4 752.04 701.15 743.5 713.69 726.5C726.28 709.5 732.53 688.43 732.53 663.48C732.53 638.65 726.2 617.62 713.69 600.62C701.15 583.45 686.6 574.96 669.34 574.96Z" />
			<path id="Path 3" fill-rule="evenodd" class="shp0" d="M960 535.29C960 583.78 958.69 627.74 947.71 666.55C936.51 705.17 922.39 736.81 905.52 760.99C888.29 785.39 867.53 806.8 842.48 824.86C817.43 843.49 794.35 856.71 773.54 865.3C752.7 873.8 728.76 880.42 701.66 885.02C674.88 889.74 654.63 892.31 640.59 893.01C640.59 893.01 584.71 896 512 896C439.29 896 383.29 893.01 383.29 893.01C369.22 892.31 349 889.79 322.34 885.02C295.13 880.5 271.3 874.04 250.38 865.3C229.57 856.79 206.53 843.49 181.6 824.86C156.47 806.56 135.67 785.23 118.45 760.99C101.57 736.81 87.38 705.17 76.25 666.55C65.32 627.74 64 584.07 64 535.59C64 473.08 83.96 397.1 132.48 344.6C132.48 344.6 126.82 315.82 131.61 265.94C135.94 215.98 146.51 169.96 163.7 128C224.22 134.46 298.7 168.63 387.89 230.35C418.01 222.48 459.26 218.46 511.84 218.46C567.01 218.46 608.22 222.47 635.83 230.34C676.45 202.9 715.34 180.41 752.42 163.33C790.14 146.39 817.62 138.06 834.3 133.79C850.97 129.52 859.82 128 859.82 128C877.12 169.96 887.7 215.81 892.06 265.64C897.02 315.47 891.44 344 891.44 344L891.55 344C939.96 398 960 474.78 960 535.29ZM844.6 649.73C844.6 602.58 826.87 563.07 791.4 531.57C773.11 514.49 751.72 506.09 727.14 502.08C703.2 498.14 666.19 500.14 616.21 504.08C566.43 508.09 535.4 512 512 512C487.07 512 462.06 508.57 428.48 505.98C394.89 503.44 368.59 499.88 349.79 499.05C330.56 498.45 310.11 498.86 287.85 503.98C265.44 509.37 247.27 518.38 232.56 531.41C198.74 561.65 181.6 600.97 181.6 649.63C181.6 730.99 209.12 784.92 264.14 811.1C319.11 837.43 400.95 847.92 509.84 847.92L514.12 848C622.97 848 705.04 837.47 760.77 811.29C816.33 785.07 844.6 731.07 844.6 649.73Z" />
		</g>
	</g>
</svg>