<svg xmlns="http://www.w3.org/2000/svg" viewBox="0 0 1024 1024" width="1024" height="1024">
	<defs>
		<clipPath clipPathUnits="userSpaceOnUse" id="cp1">
			<path d="M0 0L1024 0L1024 1024L0 1024Z" />
		</clipPath>
		<clipPath clipPathUnits="userSpaceOnUse" id="cp2">
			<path d="M0 0L1024 0L1024 1024L0 1024L0 0Z" />
		</clipPath>
	</defs>
	<style>
		tspan { white-space:pre }
		.shp0 { fill: #ffffff } 
	</style>
	<g id="Page 1" clip-path="url(#cp1)">
		<g id="Mask" clip-path="url(#cp2)">
			<path id="Path 2" class="shp0" d="M625.14 398.53C687.62 461.01 687.62 562.32 625.14 624.8C562.65 687.29 461.35 687.29 398.86 624.8C336.38 562.32 336.38 461.01 398.86 398.53C461.35 336.04 562.65 336.04 625.14 398.53Z" />
			<path id="Path 3" fill-rule="evenodd" class="shp0" d="M299.14 449L129 449L129 223C129 169.98 173.98 129 227 129L803 129C856.02 129 897 169.98 897 223L897 449L728.85 449C718.41 413 699.23 380.74 672.39 353.9C630.08 311.59 573.83 287.92 514 287.92C454.17 287.92 397.92 311.47 355.61 353.77C328.77 380.62 309.59 413 299.14 449ZM833 218.6C833 204.46 821.54 193 807.4 193L730.6 193C716.46 193 705 204.46 705 218.6L705 295.4C705 309.54 716.46 321 730.6 321L807.4 321C821.54 321 833 309.54 833 295.4L833 218.6ZM738 513L897 513L897 799C897 852.02 856.02 897 803 897L227 897C173.98 897 129 852.02 129 799L129 513L290 513C290.09 571 313.38 628.45 355.61 670.68C397.92 712.99 454.17 735.92 514 735.92C573.83 735.92 630.08 712.87 672.39 670.56C714.62 628.33 737.91 571 738 513Z" />
		</g>
	</g>
</svg>