<svg xmlns="http://www.w3.org/2000/svg" viewBox="0 0 1024 1024" width="1024" height="1024">
	<defs>
		<clipPath clipPathUnits="userSpaceOnUse" id="cp1">
			<path d="M0 0L1024 0L1024 1024L0 1024Z" />
		</clipPath>
		<clipPath clipPathUnits="userSpaceOnUse" id="cp2">
			<path d="M0 0L1024 0L1024 1024L0 1024L0 0Z" />
		</clipPath>
	</defs>
	<style>
		tspan { white-space:pre }
		.shp0 { fill: #ffffff } 
	</style>
	<g id="Page 1" clip-path="url(#cp1)">
		<g id="Mask" clip-path="url(#cp2)">
			<path id="Path 2" class="shp0" d="M984 219C949.2 234.4 912 244.8 872.8 249.6C912.8 225.6 943.6 187.6 958 142.4C920.6 164.6 879.2 180.8 835 189.4C799.6 151.6 749.2 128 693.6 128C586.6 128 500 214.8 500 321.8C500 337 501.6 351.8 505 366C344 358 201.2 280.8 105.8 163.4C89.2 192 79.6 225.4 79.6 260.8C79.6 328 114 387.4 166 422.2C134 421.4 104 412.6 78 398C78 398.8 78 399.6 78 400.4C78 494.4 144.8 572.6 233.4 590.4C217.2 594.8 200 597.2 182.4 597.2C170 597.2 157.8 596 146 593.6C170.6 670.6 242.2 726.6 327 728.2C260.8 780.2 177.2 811.2 86.4 811.2C70.8 811.2 55.4 810.2 40.2 808.4C125.6 864 227.4 896 336.6 896C693.2 896 888 600.6 888 344.4C888 336 887.8 327.6 887.4 319.4C925.2 292 958 258 984 219Z" />
		</g>
	</g>
</svg>